<svg width="40" height="40" viewBox="0 0 40 40" fill="none" xmlns="http://www.w3.org/2000/svg">
<path d="M40 20C40 23.9556 38.827 27.8224 36.6294 31.1114C34.4318 34.4004 31.3082 36.9638 27.6537 38.4776C23.9991 39.9913 19.9778 40.3874 16.0982 39.6157C12.2186 38.844 8.65491 36.9392 5.85786 34.1421C3.06081 31.3451 1.156 27.7814 0.384294 23.9018C-0.38741 20.0222 0.00865672 16.0009 1.52241 12.3463C3.03616 8.69181 5.59961 5.56824 8.8886 3.37061C12.1776 1.17298 16.0444 -4.71704e-08 20 0V5C17.0333 5 14.1332 5.87973 11.6664 7.52796C9.19971 9.17618 7.27712 11.5189 6.14181 14.2597C5.00649 17.0006 4.70944 20.0166 5.28822 22.9264C5.867 25.8361 7.29561 28.5088 9.3934 30.6066C11.4912 32.7044 14.1639 34.133 17.0736 34.7118C19.9834 35.2906 22.9994 34.9935 25.7403 33.8582C28.4811 32.7229 30.8238 30.8003 32.472 28.3336C34.1203 25.8668 35 22.9667 35 20H40Z" fill="black"/>
</svg>
